<svg
  width="64"
  height="64"
  viewBox="0 0 64 64"
  fill="none"
  xmlns="http://www.w3.org/2000/svg"
>
  <circle cx="32" cy="32" r="32" fill="#FF6F61"/>
  <path
    d="M48 16V46C48 47.657 46.657 49 45 49C43.343 49 42 47.657 42 46C42 44.343 40.657 43 39 43C37.343 43 36 44.343 36 46C36 47.657 34.657 49 33 49C31.343 49 30 47.657 30 46V26H24V16H48Z"
    fill="white"
  />
  <path
    d="M24 16V46C24 47.657 22.657 49 21 49C19.343 49 18 47.657 18 46C18 44.343 16.657 43 15 43C13.343 43 12 44.343 12 46C12 47.657 10.657 49 9 49C7.343 49 6 47.657 6 46V26H0V16H24Z"
    fill="white"
  />
</svg>
